<?xml version="1.0" encoding="UTF-8"?>
<svg width="18px" height="18px" viewBox="0 0 18 18" version="1.1" xmlns="http://www.w3.org/2000/svg" xmlns:xlink="http://www.w3.org/1999/xlink">
    <!-- Generator: Sketch 52.1 (67048) - http://www.bohemiancoding.com/sketch -->
    <title>Group 15</title>
    <desc>Created with Sketch.</desc>
    <g id="Page-Structure" stroke="none" stroke-width="1" fill="none" fill-rule="evenodd" stroke-linecap="round" stroke-linejoin="round">
        <g id="Page-Structure---70-Stores---Collapsed" transform="translate(-1293.000000, -32.000000)" stroke="#FFFFFF">
            <g id="Group-15" transform="translate(1294.000000, 33.000000)">
                <path d="M13.741913,9.36533203 L15,9.36533203 C15.5522847,9.36533203 16,8.91761678 16,8.36533203 L16,7.63466797 C16,7.08238322 15.5522847,6.63466797 15,6.63466797 L13.7412174,6.63466797 C13.5958261,6.03153753 13.357913,5.43930435 13.0434783,4.92382609 L13.9335888,4.03441113 C14.3241982,3.64397191 14.3243361,3.01080695 13.9338969,2.6201976 C13.9338455,2.62014625 13.9337942,2.6200949 13.9337429,2.62004356 L13.3796485,2.0665651 C12.9891843,1.67610093 12.356138,1.67603201 11.9655889,2.06641116 L11.0747826,2.95652174 C10.56,2.64208696 9.96849502,2.40486957 9.36536458,2.25947826 L9.36536458,1 C9.36536458,0.44771525 8.91764933,-2.12475365e-16 8.36536458,-1.11022302e-16 L7.63463542,0 C7.08235067,1.01453063e-16 6.63463542,0.44771525 6.63463542,1 L6.63463542,2.25947826 C6.03150498,2.40486957 5.43930435,2.64208696 4.92452174,2.95652174 L4.03371548,2.06641116 C3.6431663,1.67603201 3.01012006,1.67610093 2.61965588,2.0665651 L2.06556154,2.62004363 C1.67503725,3.01056792 1.67503725,3.6437329 2.06556154,4.03425719 C2.06561286,4.03430851 2.06566418,4.03435982 2.06571551,4.03441113 L2.95652174,4.92452174 C2.64208696,5.43930435 2.40417391,6.03153753 2.25808696,6.63466797 L1,6.63466797 C0.44771525,6.63466797 -6.76353751e-17,7.08238322 0,7.63466797 L0,8.36533203 C6.76353751e-17,8.91761678 0.44771525,9.36533203 1,9.36533203 L2.25808696,9.36533203 C2.40417391,9.96846247 2.64208696,10.5606957 2.95652174,11.0754783 L2.06559049,11.9661595 C1.6750662,12.3566838 1.6750662,12.9898488 2.06559049,13.3803731 C2.06563216,13.3804148 2.06567383,13.3804564 2.0657155,13.3804981 L2.61934798,13.9337428 C3.0099413,14.3241981 3.64310627,14.3240862 4.03356152,13.9334928 C4.03357117,13.9334832 4.03358082,13.9334735 4.03359047,13.9334639 L4.92382609,13.0427826 C5.43930435,13.357913 6.03150498,13.5958261 6.63463542,13.741913 L6.63463542,15 C6.63463542,15.5522847 7.08235067,16 7.63463542,16 L8.36536458,16 C8.91764933,16 9.36536458,15.5522847 9.36536458,15 L9.36536458,13.741913 C9.96849502,13.5958261 10.5606957,13.357913 11.0747826,13.0434783 L11.9662845,13.9335887 C12.3568585,14.3238228 12.9897861,14.323685 13.3801902,13.933281 L13.9334349,13.3803441 C14.3238991,12.9898799 14.323968,12.3568337 13.9335888,11.9662845 L13.0434783,11.0754783 C13.357913,10.5606957 13.5958261,9.96846247 13.741913,9.36533203 Z" id="Stroke-3039"></path>
                <path d="M10.365287,8 C10.365287,9.30665121 9.30619517,10.3652174 8.00006957,10.3652174 C6.69394396,10.3652174 5.63485217,9.30665121 5.63485217,8 C5.63485217,6.6938744 6.69394396,5.63478261 8.00006957,5.63478261 C9.30619517,5.63478261 10.365287,6.6938744 10.365287,8 Z" id="Stroke-3040"></path>
            </g>
        </g>
    </g>
</svg>