<?xml version="1.0" encoding="UTF-8"?>
<svg width="14px" height="16px" viewBox="0 0 14 16" version="1.1" xmlns="http://www.w3.org/2000/svg" xmlns:xlink="http://www.w3.org/1999/xlink">
    <!-- Generator: Sketch 52.1 (67048) - http://www.bohemiancoding.com/sketch -->
    <title>Group 4 Copy 14</title>
    <desc>Created with Sketch.</desc>
    <g id="Page-Structure" stroke="none" stroke-width="1" fill="none" fill-rule="evenodd" stroke-linecap="round" stroke-linejoin="round">
        <g id="Page-Structure---70-Stores---Collapsed" transform="translate(-1338.000000, -33.000000)" stroke="#FFFFFF">
            <g id="Group-4-Copy-14" transform="translate(1339.000000, 34.000000)">
                <path d="M11.1074628,9.7186672 C11.6435596,9.81634564 12.0499878,10.28571 12.0499878,10.8500007 C12.0499878,11.4851282 11.5351153,12.0000007 10.8999878,12.0000007 L1.29996336,12.0000007 C0.664835906,12.0000007 0.149963379,11.4851282 0.149963379,10.8500007 C0.149963379,10.2339591 0.634356605,9.7310536 1.24304235,9.70138488 C1.4917613,9.41457501 1.56521739,8.94797917 1.56521739,8.42105263 L1.56521739,5.52631579 C1.56521739,3.60473684 2.76782609,1.97052632 4.45408696,1.33736842 C4.5693913,0.580526316 5.2173913,0 6,0 C6.7826087,0 7.42852174,0.580526316 7.54434783,1.33736842 C9.23008696,1.97052632 10.4347826,3.60473684 10.4347826,5.52631579 L10.4347826,8.42105263 C10.4347826,8.9587002 10.7006957,9.43353708 11.1074628,9.7186672 Z" id="Combined-Shape"></path>
                <path d="M8,12 C8,13.1046667 7.19995117,14 6,14 C4.80004883,14 4,13.1046667 4,12" id="Stroke-3115"></path>
            </g>
        </g>
    </g>
</svg>