<?xml version="1.0" encoding="UTF-8"?>
<svg width="45px" height="65px" viewBox="0 0 45 65" version="1.1" xmlns="http://www.w3.org/2000/svg" xmlns:xlink="http://www.w3.org/1999/xlink">
    <!-- Generator: Sketch 52.1 (67048) - http://www.bohemiancoding.com/sketch -->
    <title>storebar_heading</title>
    <desc>Created with Sketch.</desc>
    <g id="Page-1" stroke="none" stroke-width="1" fill="none" fill-rule="evenodd">
        <g id="Artboard" fill-rule="nonzero">
            <g id="storebar_heading">
                <path d="M0,0 L45,0 L45,58.4862947 C45,59.9405828 43.9569375,61.1854333 42.5251,61.4399822 L22.5,65 L2.4749,61.4399822 C1.04306247,61.1854333 1.38982278e-15,59.9405828 4.4408921e-15,58.4862947 L0,0 Z" id="Rectangle-2-Copy-14" fill="#FFFFFF"></path>
                <path d="M16,32 L16,37 L21,37 L21,32 L16,32 Z M16,31 L21,31 C21.5522847,31 22,31.4477153 22,32 L22,37 C22,37.5522847 21.5522847,38 21,38 L16,38 C15.4477153,38 15,37.5522847 15,37 L15,32 C15,31.4477153 15.4477153,31 16,31 Z M24,31 L29,31 C29.5522847,31 30,31.4477153 30,32 L30,37 C30,37.5522847 29.5522847,38 29,38 L24,38 C23.4477153,38 23,37.5522847 23,37 L23,32 C23,31.4477153 23.4477153,31 24,31 Z M24,32 L24,37 L29,37 L29,32 L24,32 Z M16,39 L21,39 C21.5522847,39 22,39.4477153 22,40 L22,45 C22,45.5522847 21.5522847,46 21,46 L16,46 C15.4477153,46 15,45.5522847 15,45 L15,40 C15,39.4477153 15.4477153,39 16,39 Z M16,40 L16,45 L21,45 L21,40 L16,40 Z M24,39 L29,39 C29.5522847,39 30,39.4477153 30,40 L30,45 C30,45.5522847 29.5522847,46 29,46 L24,46 C23.4477153,46 23,45.5522847 23,45 L23,40 C23,39.4477153 23.4477153,39 24,39 Z M24,40 L24,45 L29,45 L29,40 L24,40 Z" id="Entreprise" fill="#4F50A0"></path>
            </g>
        </g>
    </g>
</svg>