<?xml version="1.0" encoding="UTF-8"?>
<svg width="16px" height="19px" viewBox="0 0 16 19" version="1.1" xmlns="http://www.w3.org/2000/svg" xmlns:xlink="http://www.w3.org/1999/xlink">
    <!-- Generator: Sketch 52.1 (67048) - http://www.bohemiancoding.com/sketch -->
    <title>Grocery</title>
    <desc>Created with Sketch.</desc>
    <g id="Page-Structure" stroke="none" stroke-width="1" fill="none" fill-rule="evenodd" stroke-linejoin="round">
        <g transform="translate(-119.000000, -261.000000)" id="Grocery" stroke="#FFFFFF" stroke-width="0.8">
            <g transform="translate(120.000000, 262.000000)">
                <path d="M7,16.2105263 C8.10526316,16.2105263 7.36842105,16.9473684 9.57894737,16.9473684 C11.7894737,16.9473684 14,12.5263158 14,9.57894737 C14,6.63157895 12.1578947,4.42105263 9.94736842,4.42105263 C7.73684211,4.42105263 7.73684211,5.15789474 7,5.15789474 C6.26315789,5.15789474 6.26315789,4.42105263 4.05263158,4.42105263 C1.84210526,4.42105263 0,6.63157895 0,9.57894737 C0,12.5263158 2.21052632,16.9473684 4.42105263,16.9473684 C6.63157895,16.9473684 5.89473684,16.2105263 7,16.2105263 Z" id="Stroke-723"></path>
                <path d="M7,5.15789474 L7,3.68421053 C7,2.87368421 6.33684211,2.21052632 5.52631579,2.21052632 L4.05263158,2.21052632" id="Stroke-724" stroke-linecap="round"></path>
                <path d="M8.47368421,3.31578947 C10.3047368,3.31578947 11.7894737,1.83105263 11.7894737,0 C9.95842105,0 8.47368421,1.48547368 8.47368421,3.31578947 Z" id="Stroke-725"></path>
            </g>
        </g>
    </g>
</svg>